<svg xmlns="http://www.w3.org/2000/svg" width="413.922" height="308.385" viewBox="0 0 413.922 308.385">
  <g id="Group_324" data-name="Group 324" transform="translate(-753 -857.537)">
    <circle id="Ellipse_44" data-name="Ellipse 44" cx="9.773" cy="9.773" r="9.773" transform="translate(968.436 869.441)" fill="#6f9642"/>
    <path id="Path_395" data-name="Path 395" d="M630.368,193.527a1.014,1.014,0,0,1-.61-.2l-.011-.008-2.3-1.757a1.021,1.021,0,1,1,1.242-1.62l1.488,1.141,3.515-4.586a1.02,1.02,0,0,1,1.43-.189h0l-.022.03.022-.03a1.021,1.021,0,0,1,.189,1.431l-4.135,5.392a1.021,1.021,0,0,1-.812.4Z" transform="translate(346.873 689.416)" fill="#fff"/>
    <circle id="Ellipse_44-2" data-name="Ellipse 44" cx="9.773" cy="9.773" r="9.773" transform="translate(968.436 935.51)" fill="#6f9642"/>
    <path id="Path_395-2" data-name="Path 395" d="M630.368,321.527a1.014,1.014,0,0,1-.61-.2l-.011-.008-2.3-1.757a1.021,1.021,0,1,1,1.242-1.62l1.488,1.141,3.515-4.586a1.02,1.02,0,0,1,1.43-.189h0l-.022.03.022-.03a1.021,1.021,0,0,1,.189,1.431l-4.135,5.392a1.021,1.021,0,0,1-.812.4Z" transform="translate(346.873 627.484)" fill="#fff"/>
    <path id="Path_520" data-name="Path 520" d="M682.9,498.415a5.547,5.547,0,0,1,6.3-5.711l8.951-17.561,5.058,8.907-9.275,15.311a5.577,5.577,0,0,1-11.035-.945Z" transform="translate(319.853 549.564)" fill="#ffb7b7"/>
    <path id="Path_521" data-name="Path 521" d="M554.993,557.8h-7.024L544.627,530.7h10.367Z" transform="translate(489.489 600.762)" fill="#ffb7b7"/>
    <path id="Path_522" data-name="Path 522" d="M745.989,739.124H723.339v-.286a8.816,8.816,0,0,1,8.815-8.816h13.835Z" transform="translate(300.285 426.244)" fill="#2f2e41"/>
    <path id="Path_523" data-name="Path 523" d="M628.766,557.8h-7.024L618.4,530.7h10.367Z" transform="translate(453.795 600.762)" fill="#ffb7b7"/>
    <path id="Path_524" data-name="Path 524" d="M819.762,739.124h-22.65v-.286a8.816,8.816,0,0,1,8.815-8.816h13.835Z" transform="translate(264.591 426.244)" fill="#2f2e41"/>
    <path id="Path_525" data-name="Path 525" d="M700.932,490.62l-3.066,5.111s5.111,0,6.133,7.666l4.089-5.111Z" transform="translate(312.61 542.076)" fill="#e5e5e5"/>
    <path id="Path_526" data-name="Path 526" d="M769.446,469.827s8.177,21.465,9.71,34.753,4.089,48.552,4.089,48.552l5.111,45.486-14.31,2.044-6.133-46-13.8-45.486-3.066,45.486-2.555,41.4-13.288.511-1.022-42.931-5.622-54.685,3.066-26.065Z" transform="translate(297.759 552.137)" fill="#2f2e41"/>
    <circle id="Ellipse_149" data-name="Ellipse 149" cx="12.777" cy="12.777" r="12.777" transform="translate(1031.43 931.559)" fill="#ffb7b7"/>
    <path id="Path_527" data-name="Path 527" d="M561.638,192.312l5.111,3.577,6.644,66.951L532,263.862l5.622-46.508,5.11-13.288,3.689-4.877Z" transform="translate(495.601 764.488)" fill="#e5e5e5"/>
    <path id="Path_528" data-name="Path 528" d="M790.444,393.321l1.564-46.231s3.036.234,4.058,1.767,17.888,4.6,17.888,4.6l-3.066,47.53s12.777,37.82,8.177,39.864-12.777,1.533-12.777,1.533Z" transform="translate(267.817 611.52)" fill="#2f2e41"/>
    <path id="Path_529" data-name="Path 529" d="M729.884,396.063l5.422-31.158-12.066,8.159,3.067,22.488-2.555,15.332s-9.711,42.419-6.644,43.953,6.644,0,6.644,0l6.133-42.93Z" transform="translate(303.59 602.9)" fill="#2f2e41"/>
    <path id="Path_530" data-name="Path 530" d="M717.8,378.733l-3.578,1.022L712.686,400.2l-2.555,17.888-12.266,21.977s6.133-4.089,8.688,7.666l13.508-23.518Z" transform="translate(312.61 596.211)" fill="#2f2e41"/>
    <path id="Path_531" data-name="Path 531" d="M756.973,287.827l2.409-.965s-5.038-5.546-12.047-5.064l1.971-2.17s-4.819-1.929-9.2,3.135a42.756,42.756,0,0,0-6.628,9.316H730.9l1.077,2.371-3.769,2.371,3.869-.426a13.248,13.248,0,0,0-.105,3.933,5.089,5.089,0,0,0,1.864,3.329h0s2.988-6.185,2.988-7.15v2.411s2.409-2.17,2.409-3.617l1.314,1.688.657-2.653,8.1,2.653-1.314-2.17,5.038.723-1.971-2.653,7.8,10.954S763.325,291.444,756.973,287.827Z" transform="translate(297.93 644.336)" fill="#2f2e41"/>
    <path id="Path_532" data-name="Path 532" d="M790.269,493.485a5.547,5.547,0,0,1,7.291-4.379l12.19-15.489,3.232,9.719-12.071,13.219a5.577,5.577,0,0,1-10.642-3.069Z" transform="translate(267.938 550.303)" fill="#ffb7b7"/>
    <path id="Path_533" data-name="Path 533" d="M621.446,341.138l-4.6,5.622-6.133-10.733,2.555-4.6Z" transform="translate(457.515 697.18)" fill="#e5e5e5"/>
    <path id="Path_534" data-name="Path 534" d="M819.462,360.975l4.089-2.044s3.066,4.089,3.578,7.666,3.066,8.177,3.066,10.733,7.155,26.576,7.155,26.576L821,437.125s-3.578-12.266-11.244-13.288l12.777-17.888-7.155-12.777Z" transform="translate(258.476 605.791)" fill="#2f2e41"/>
    <path id="Path_535" data-name="Path 535" d="M815.135,747.3H618.477a.516.516,0,1,1,0-1.032H815.135a.516.516,0,1,1,0,1.032Z" transform="translate(351.271 418.383)" fill="#cbcbcb"/>
    <path id="Path_536" data-name="Path 536" d="M387.438,322.629h-188.4V279.271h188.4Z" transform="translate(553.961 644.334)" fill="#fff"/>
    <path id="Path_537" data-name="Path 537" d="M250,307.046a1.836,1.836,0,0,0,0,3.671H384.023a1.836,1.836,0,0,0,0-3.671Z" transform="translate(530.194 630.895)" fill="#6f9642"/>
    <path id="Path_538" data-name="Path 538" d="M249.993,328.384a1.836,1.836,0,0,0-.008,3.671h84.733a1.836,1.836,0,0,0,0-3.671Z" transform="translate(530.198 620.57)" fill="#6f9642"/>
    <path id="Path_539" data-name="Path 539" d="M387.438,322.629h-188.4V279.271h188.4Zm-185.3-3.1H384.341V282.368H202.136Z" transform="translate(553.961 644.334)" fill="#e5e5e5"/>
    <path id="Path_540" data-name="Path 540" d="M387.438,450.629h-188.4V407.271h188.4Z" transform="translate(553.961 582.402)" fill="#fff"/>
    <path id="Path_541" data-name="Path 541" d="M250,435.046a1.836,1.836,0,0,0,0,3.671H384.023a1.836,1.836,0,0,0,0-3.671Z" transform="translate(530.194 568.965)" fill="#e6e6e6"/>
    <path id="Path_542" data-name="Path 542" d="M249.993,456.384a1.836,1.836,0,0,0-.008,3.671h84.733a1.836,1.836,0,0,0,0-3.671Z" transform="translate(530.198 558.641)" fill="#e6e6e6"/>
    <path id="Path_543" data-name="Path 543" d="M387.438,450.629h-188.4V407.271h188.4Zm-185.3-3.1H384.341V410.368H202.136Z" transform="translate(553.961 582.402)" fill="#e5e5e5"/>
    <path id="Path_544" data-name="Path 544" d="M390.438,194.629h-188.4V151.271h188.4Z" transform="translate(552.51 706.266)" fill="#fff"/>
    <path id="Path_545" data-name="Path 545" d="M253,179.046a1.836,1.836,0,0,0,0,3.671H387.023a1.836,1.836,0,0,0,0-3.671Z" transform="translate(528.743 692.826)" fill="#6f9642"/>
    <path id="Path_546" data-name="Path 546" d="M252.993,200.384a1.836,1.836,0,1,0-.008,3.671h84.733a1.836,1.836,0,0,0,0-3.671Z" transform="translate(528.746 682.502)" fill="#6f9642"/>
    <path id="Path_547" data-name="Path 547" d="M390.438,194.629h-188.4V151.271h188.4Zm-185.3-3.1H387.341V154.368H205.136Z" transform="translate(552.51 706.266)" fill="#e5e5e5"/>
    <path id="Path_548" data-name="Path 548" d="M938.287,713.728V676.389S952.839,702.861,938.287,713.728Z" transform="translate(196.285 452.193)" fill="#f1f1f1"/>
    <path id="Path_549" data-name="Path 549" d="M914.245,725.046l-27.506-25.251S916.08,706.977,914.245,725.046Z" transform="translate(221.226 440.869)" fill="#f1f1f1"/>
    <circle id="Ellipse_44-3" data-name="Ellipse 44" cx="9.773" cy="9.773" r="9.773" transform="translate(993.212 1027.309)" fill="#6f9642"/>
    <path id="Path_395-3" data-name="Path 395" d="M678.367,499.373a1.014,1.014,0,0,1-.61-.2l-.011-.008-2.3-1.757a1.021,1.021,0,1,1,1.242-1.62l1.488,1.141,3.516-4.586a1.02,1.02,0,0,1,1.43-.189h0l-.022.03.022-.03a1.021,1.021,0,0,1,.189,1.431l-4.135,5.392a1.021,1.021,0,0,1-.812.4Z" transform="translate(323.649 541.438)" fill="#fff"/>
  </g>
</svg>
