<svg xmlns="http://www.w3.org/2000/svg" width="427" height="211" viewBox="0 0 427 211">
  <g id="Group_427" data-name="Group 427" transform="translate(-611 -1836)">
    <g id="Rectangle_331" data-name="Rectangle 331" transform="translate(611 1836)" fill="#fff" stroke="#fb5402" stroke-width="3">
      <rect width="427" height="211" rx="8" stroke="none"/>
      <rect x="1.5" y="1.5" width="424" height="208" rx="6.5" fill="none"/>
    </g>
    <g id="Group_384" data-name="Group 384" transform="translate(0 -53)">
      <text id="Pay_by_Paypal" data-name="Pay by Paypal" transform="translate(747 2022)" fill="#101010" font-size="24" font-family="SegoeUI, Segoe UI"><tspan x="0" y="0">Pay by Paypal</tspan></text>
      <g id="paypal-color-large" transform="translate(791 1934)">
        <rect id="card_bg" width="66" height="44" rx="4" transform="translate(0 0)" fill="#fff"/>
        <path id="card_bg-2" d="M60.5,44H5.5A5.506,5.506,0,0,1,0,38.5V5.5A5.506,5.506,0,0,1,5.5,0h55A5.506,5.506,0,0,1,66,5.5v33A5.506,5.506,0,0,1,60.5,44ZM5.5,2.75A2.753,2.753,0,0,0,2.75,5.5v33a2.753,2.753,0,0,0,2.75,2.75h55a2.753,2.753,0,0,0,2.75-2.75V5.5A2.753,2.753,0,0,0,60.5,2.75Z" transform="translate(0 0)" fill="#cccccb"/>
        <g id="paypal" transform="translate(21.345 8.25)">
          <path id="Path" d="M5.651,25.63,6.132,22.6H0L3.52.247a.289.289,0,0,1,.1-.179A.33.33,0,0,1,3.809,0h8.539c2.846,0,4.8.591,5.83,1.76A3.781,3.781,0,0,1,19.1,3.506a6.078,6.078,0,0,1,0,2.406V6.6l.481.275a3.424,3.424,0,0,1,.976.729,3.561,3.561,0,0,1,.784,1.774,7.879,7.879,0,0,1-.11,2.557,8.91,8.91,0,0,1-1.059,2.9,5.912,5.912,0,0,1-1.664,1.829,6.958,6.958,0,0,1-2.241,1,10.876,10.876,0,0,1-2.75.33h-.674a2.021,2.021,0,0,0-1.292.467,1.952,1.952,0,0,0-.674,1.21v.275l-.839,5.335v.206a.206.206,0,0,1,0,.11H9.955Z" transform="translate(0.971 0.935)" fill="#253d80"/>
          <path id="Path-2" data-name="Path" d="M15.366,0l-.083.509C14.156,6.284,10.292,8.291,5.37,8.291h-2.5a1.224,1.224,0,0,0-1.21,1.031L.378,17.462l-.371,2.31a.646.646,0,0,0,.632.742H5.095a1.072,1.072,0,0,0,1.059-.907v-.22l.839-5.321v-.289a1.059,1.059,0,0,1,1.045-.907h.729c4.3,0,7.686-1.746,8.662-6.875a5.83,5.83,0,0,0-.88-5.129A4.441,4.441,0,0,0,15.366,0Z" transform="translate(5.638 6.985)" fill="#189bd7"/>
          <path id="Path-3" data-name="Path" d="M12.43.4,11.907.262,11.33.152A13.832,13.832,0,0,0,9.13,0H2.42a.99.99,0,0,0-.454.1,1.045,1.045,0,0,0-.591.8L0,9.928v.261A1.224,1.224,0,0,1,1.21,9.158h2.5c4.922,0,8.786-2.007,9.914-7.782l.083-.509a6.16,6.16,0,0,0-.921-.385Z" transform="translate(7.392 6.118)" fill="#242e65"/>
          <path id="Path-4" data-name="Path" d="M8.767,7.012a1.045,1.045,0,0,1,.591-.8.99.99,0,0,1,.454-.1h6.71a13.832,13.832,0,0,1,2.2.151l.577.11.522.137.261.082A6.16,6.16,0,0,1,21,6.985a5.5,5.5,0,0,0-1.1-4.909C18.529.619,16.274,0,13.332,0H4.779a1.224,1.224,0,0,0-1.21,1.031L.008,23.595a.742.742,0,0,0,.729.852h5.28l1.375-8.4Z" transform="translate(0 0)" fill="#253d80"/>
        </g>
      </g>
    </g>
  </g>
</svg>
