<svg xmlns="http://www.w3.org/2000/svg" width="327.186" height="253.198" viewBox="0 0 327.186 253.198">
  <g id="Group_5" data-name="Group 5" transform="translate(0)">
    <path id="Path_53" data-name="Path 53" d="M14.51,536.2c10.2,7.347,23.415,7.716,36.19,6.813,1.784-.126,3.555-.274,5.31-.433.011,0,.025,0,.036,0,.084-.008.169-.016.249-.021l1.083-.1-.085.162-.266.5c.1-.168.191-.332.287-.5.028-.05.06-.1.088-.151,3.309-5.759,6.592-11.73,7.429-18.306.865-6.826-1.567-14.555-7.574-17.91a12.13,12.13,0,0,0-2.488-1.042c-.359-.109-.723-.2-1.092-.276a12.993,12.993,0,0,0-15.11,16.891c-5.093-5.223-4.143-13.7-2.386-20.776s3.891-14.96.311-21.32a14.058,14.058,0,0,0-9.418-6.621c-.12-.026-.241-.052-.361-.074a18.964,18.964,0,0,0-13.624,2.387c-7.51,4.733-11.368,13.706-12.619,22.5C-1.548,512.056,2.915,527.842,14.51,536.2Z" transform="translate(0 -290.22)" fill="#f2f2f2"/>
    <path id="Path_54" data-name="Path 54" d="M45.713,514.108a32.239,32.239,0,0,0,2.225,9.084,27.977,27.977,0,0,0,4.346,7.1,35.863,35.863,0,0,0,13.776,9.933A51.622,51.622,0,0,0,78.61,543.6c1.784-.126,3.555-.274,5.31-.433.011,0,.025,0,.035,0,.084-.008.169-.016.249-.021l1.083-.1-.085.162-.266.5c.1-.168.191-.332.287-.5.028-.05.06-.1.088-.151a28.28,28.28,0,0,1-2.633-37.257c-.359-.109-.723-.2-1.092-.276a29.793,29.793,0,0,0-2.721,4.508,29.232,29.232,0,0,0-2.522,18.187,29.888,29.888,0,0,0,7.573,14.908c-.341-.024-.685-.052-1.022-.083a52.406,52.406,0,0,1-18.525-4.719,33.365,33.365,0,0,1-12.5-10.255,30.156,30.156,0,0,1-5.312-16.548,69.852,69.852,0,0,1,1.982-18.906,79.386,79.386,0,0,1,6.668-18.164.57.57,0,0,0-.227-.753.486.486,0,0,0-.361-.075.424.424,0,0,0-.279.239c-.365.712-.722,1.424-1.066,2.144a80.245,80.245,0,0,0-6.283,18.844A64.61,64.61,0,0,0,45.713,514.108Z" transform="translate(-27.91 -290.808)" fill="#fff"/>
    <path id="Path_55" data-name="Path 55" d="M551.924,217.688H383.255a6.569,6.569,0,0,1-6.562-6.562V6.562A6.569,6.569,0,0,1,383.255,0h168.67a6.569,6.569,0,0,1,6.562,6.562V211.127A6.569,6.569,0,0,1,551.924,217.688ZM383.255.772a5.8,5.8,0,0,0-5.79,5.79V211.127a5.8,5.8,0,0,0,5.79,5.79h168.67a5.8,5.8,0,0,0,5.789-5.79V6.562a5.8,5.8,0,0,0-5.789-5.79Z" transform="translate(-231.3)" fill="#3f3d56"/>
    <rect id="Rectangle_11" data-name="Rectangle 11" width="181.021" height="0.772" transform="translate(145.779 16.053)" fill="#3f3d56"/>
    <circle id="Ellipse_2" data-name="Ellipse 2" cx="3.088" cy="3.088" r="3.088" transform="translate(151.569 5.404)" fill="#3f3d56"/>
    <circle id="Ellipse_3" data-name="Ellipse 3" cx="3.088" cy="3.088" r="3.088" transform="translate(161.218 5.404)" fill="#3f3d56"/>
    <circle id="Ellipse_4" data-name="Ellipse 4" cx="3.088" cy="3.088" r="3.088" transform="translate(170.867 5.404)" fill="#3f3d56"/>
    <path id="Path_56" data-name="Path 56" d="M563.394,105.035H442.971a5.018,5.018,0,0,1,0-10.035H563.394a5.018,5.018,0,0,1,0,10.035ZM442.971,95.772a4.246,4.246,0,0,0,0,8.491H563.394a4.246,4.246,0,0,0,0-8.491Z" transform="translate(-268.915 -58.333)" fill="#3f3d56"/>
    <path id="Path_57" data-name="Path 57" d="M481.729,221.106H434.255a6.569,6.569,0,0,1-6.562-6.562V175.562A6.569,6.569,0,0,1,434.255,169h47.475a6.569,6.569,0,0,1,6.562,6.562v38.983A6.569,6.569,0,0,1,481.729,221.106Zm-47.475-51.334a5.8,5.8,0,0,0-5.79,5.79v38.983a5.8,5.8,0,0,0,5.79,5.79h47.475a5.8,5.8,0,0,0,5.79-5.79V175.562a5.8,5.8,0,0,0-5.79-5.79Z" transform="translate(-262.615 -103.771)" fill="#3f3d56"/>
    <rect id="Rectangle_12" data-name="Rectangle 12" width="59.826" height="51.334" rx="16" transform="translate(247.29 67.159)" fill="#f2f2f2"/>
    <path id="Path_58" data-name="Path 58" d="M481.729,409.106H434.255a6.569,6.569,0,0,1-6.562-6.562V363.562A6.569,6.569,0,0,1,434.255,357h47.475a6.569,6.569,0,0,1,6.562,6.562v38.983A6.569,6.569,0,0,1,481.729,409.106Zm-47.475-51.334a5.8,5.8,0,0,0-5.79,5.79v38.983a5.8,5.8,0,0,0,5.79,5.79h47.475a5.8,5.8,0,0,0,5.79-5.79V363.562a5.8,5.8,0,0,0-5.79-5.79Z" transform="translate(-262.615 -219.208)" fill="#3f3d56"/>
    <rect id="Rectangle_13" data-name="Rectangle 13" width="59.826" height="51.334" rx="16" transform="translate(247.29 139.722)" fill="#f2f2f2"/>
    <path id="Path_59" data-name="Path 59" d="M465.2,226.071h-.026l-5.4-.2a.7.7,0,0,1-.673-.623c-.372-3.316-1.9-20.214,4.506-27.237a9.165,9.165,0,0,1,7.252-3.046.3.3,0,0,0,.278-.145l1.307-2.054a.708.708,0,0,1,.677-.321c1.048.127,6.39.724,8.637.074a.7.7,0,0,1,.742.228l1.717,2.1a.3.3,0,0,0,.25.116,8.8,8.8,0,0,1,6.614,3.148c2.9,3.245,5.9,10.566,3.684,27.017a.708.708,0,0,1-.7.612h-4.253a.707.707,0,0,1-.7-.6l-1.389-9.586a.317.317,0,0,0-.631.039l-.1,4.5a.705.705,0,0,1-.418.628,23.611,23.611,0,0,1-18.381-.123.709.709,0,0,1-.418-.615l-.174-4.089a.317.317,0,0,0-.633-.022l-1.079,9.579A.707.707,0,0,1,465.2,226.071Z" transform="translate(-281.641 -118.163)" fill="#6f9642"/>
    <path id="Path_60" data-name="Path 60" d="M484.083,412.473h0l-21.159-.134a.632.632,0,0,1-.623-.557l-2.128-18.092a.487.487,0,0,0-.47-.433c-1.68-.055-5.676-.438-6.5-2.8-.738-2.107,1.28-5.214,6-9.237a.632.632,0,0,1,1.017.3l2.448,8.447a.494.494,0,0,0,.468.354l20.062.135a.489.489,0,0,0,.472-.344l2.724-8.668a.63.63,0,0,1,.985-.313c1.859,1.42,7.848,6.294,6.862,9.412-.516,1.633-2.845,2.543-6.92,2.705a.488.488,0,0,0-.469.433l-2.129,18.234A.63.63,0,0,1,484.083,412.473Z" transform="translate(-278.182 -233.945)" fill="#6f9642"/>
    <path id="Path_61" data-name="Path 61" d="M706.666,234.62a44.607,44.607,0,0,0-18.336,8.12A3.4,3.4,0,0,0,686.868,241a5.141,5.141,0,0,0-1.484-.624,1.5,1.5,0,0,0-1.356.586,7.674,7.674,0,0,0-1.206,1.786c-7.266-4.988-18.289-8.171-18.289-8.171v-1a5.473,5.473,0,0,1,.072-.7c.037-.268.084-.505.143-.8.935-4.757,4.632-15.626,4.632-15.626h4.18l8.1,1.683,9.118-.558,9.183-1.911,1.191-.249c1.986,1.559,4.24,12.469,5.125,17.114.112.589.2,1.076.265,1.434C706.625,234.38,706.666,234.62,706.666,234.62Z" transform="translate(-408.042 -132.278)" fill="#fff"/>
    <path id="Path_62" data-name="Path 62" d="M694.428,389.085h0s-1.941.486-4.953,8.641S685.4,416.42,685.4,416.42s-1.693,2.867,5.534,3.06c0,0-.582,1.894,3.5,1.6s3.491-.288,3.491-.288,2.622-1.651,3.787-1.36a6.134,6.134,0,0,1,3.155,1.456c1.261,1.067,5.294.632,5.342-.192a7.618,7.618,0,0,0,0-1.216s6.167.389,5-4.078-2.136-11.8-2.136-11.8-3.155-14.322-6.751-14.517S694.428,389.085,694.428,389.085Z" transform="translate(-420.747 -238.857)" fill="#fff"/>
    <circle id="Ellipse_5" data-name="Ellipse 5" cx="11.579" cy="11.579" r="11.579" transform="translate(62.775 113.32)" fill="#2f2e41"/>
    <circle id="Ellipse_6" data-name="Ellipse 6" cx="9.48" cy="9.48" r="9.48" transform="translate(65.847 117.54)" fill="#ffb8b8"/>
    <path id="Path_63" data-name="Path 63" d="M243.589,396.97a4.083,4.083,0,0,0-.414.488l-19.13-.676-2.188-4.1-6.624,2.493,3.167,7.641a3.088,3.088,0,0,0,3.19,1.887l21.647-2.377a4.052,4.052,0,1,0,.73-5.683,3.991,3.991,0,0,0-.378.331Z" transform="translate(-132.159 -241.116)" fill="#ffb8b8"/>
    <path id="Path_64" data-name="Path 64" d="M202,380.923a1.857,1.857,0,0,1-1.02-1.165l-2.665-8.943a5.163,5.163,0,0,1,9.344-4.4l5.161,7.81a1.86,1.86,0,0,1-.526,2.576,1.882,1.882,0,0,1-.239.133l-8.508,3.973A1.859,1.859,0,0,1,202,380.923Z" transform="translate(-121.469 -223.178)" fill="#ccc"/>
    <path id="Path_65" data-name="Path 65" d="M243.563,613.113l4.156-2.263-6.749-17.107-6.134,3.339Z" transform="translate(-144.196 -364.575)" fill="#ffb8b8"/>
    <path id="Path_66" data-name="Path 66" d="M252.786,633.666l8.185-4.455h0a5.938,5.938,0,0,1,8.055,2.377h0l.092.169-13.4,7.295Z" transform="translate(-155.217 -385.908)" fill="#2f2e41"/>
    <path id="Path_67" data-name="Path 67" d="M138.957,614.939h4.732l2.251-18.252h-6.984Z" transform="translate(-85.323 -366.382)" fill="#ffb8b8"/>
    <path id="Path_68" data-name="Path 68" d="M135.831,639.972h9.319a5.939,5.939,0,0,1,5.939,5.938h0v.193H135.831Z" transform="translate(-83.404 -392.961)" fill="#2f2e41"/>
    <path id="Path_69" data-name="Path 69" d="M166.671,429.184l1.544,18.527,17.222,51.665a1.544,1.544,0,0,1-.977,1.953c-.043.014-.086.027-.13.037l-5.278,1.257a1.544,1.544,0,0,1-1.737-.807L155.3,458.141a.772.772,0,0,0-1.443.182l-9.689,44.141a1.544,1.544,0,0,1-1.508,1.213h-4.91a1.541,1.541,0,0,1-1.543-1.539c0-.008,0-.017,0-.025.45-30.606-1.034-65.482,10.782-71l1.93-5.018Z" transform="translate(-83.633 -261.635)" fill="#2f2e41"/>
    <path id="Path_70" data-name="Path 70" d="M164.276,388.275l-1.99-12.033a11.918,11.918,0,0,1,3.77-10.81,11.719,11.719,0,0,1,10.935-2.673l.338.093a11.882,11.882,0,0,1,8.579,10.555c.38,5.226.04,12.808-3.735,19.248l-.073.125Z" transform="translate(-99.548 -222.5)" fill="#ccc"/>
    <path id="Path_71" data-name="Path 71" d="M190.186,307.962a12.892,12.892,0,0,1-7.369,2.277,7.9,7.9,0,0,0,3.132,1.288,26,26,0,0,1-10.62.06,6.871,6.871,0,0,1-2.223-.764,2.813,2.813,0,0,1-1.372-1.835c-.233-1.331.8-2.54,1.882-3.355a13.883,13.883,0,0,1,11.666-2.331,6.388,6.388,0,0,1,3.455,1.953,3.147,3.147,0,0,1,.291,3.737Z" transform="translate(-105.429 -185.98)" fill="#2f2e41"/>
    <path id="Path_72" data-name="Path 72" d="M129.125,278.691c1.1-4.437-2.84-9.367-7.41-9.275-4.637.094-8.049,4.284-10.395,8.285s-4.677,8.536-8.983,10.259a9.274,9.274,0,0,1-12.716-8.836c-.578,4.86.223,10.12,3.358,13.879s8.967,5.454,13.16,2.928c2.394-1.443,3.925-3.952,5.187-6.446s2.385-5.125,4.3-7.165,4.868-3.393,7.528-2.535a25.975,25.975,0,0,0,3.1,1.207c1.091.2,2.465-.316,2.614-1.416Z" transform="translate(-54.923 -165.429)" fill="#2f2e41"/>
    <path id="Path_73" data-name="Path 73" d="M131.47,433.28a4.146,4.146,0,0,1,1.058-6.269l8.223-36.859,8.342,3.424-10.706,35.155a4.169,4.169,0,0,1-6.917,4.55Z" transform="translate(-80.117 -239.564)" fill="#ffb8b8"/>
    <path id="Path_74" data-name="Path 74" d="M148.274,380.833a1.857,1.857,0,0,1-.13-1.542l3.162-8.779a5.163,5.163,0,0,1,10.13,2.006l-.481,9.349A1.86,1.86,0,0,1,159,383.628a1.889,1.889,0,0,1-.271-.034l-9.205-1.851A1.857,1.857,0,0,1,148.274,380.833Z" transform="translate(-90.897 -224.958)" fill="#ccc"/>
    <path id="b06866c4-d0b9-420f-a9d2-389dd10be0a8" d="M299.723,381.438l-.137-.019.516-3.753a2.192,2.192,0,0,0-1.873-2.471l-7.951-1.093a2.192,2.192,0,0,0-2.471,1.874l-2.83,20.588a2.192,2.192,0,0,0,1.873,2.471l7.951,1.093a2.192,2.192,0,0,0,2.471-1.873l1.947-14.164.137.019Z" transform="translate(-174.971 -229.697)" fill="#3f3d56"/>
    <path id="fb337c3c-e64d-4daa-8f83-1de4a3033e68" d="M299.461,378.13l-.99-.136a.742.742,0,0,1-.82.919l-4.344-.6a.742.742,0,0,1-.542-1.106l-.924-.127a1.562,1.562,0,0,0-1.76,1.335h0l-2.7,19.609a1.562,1.562,0,0,0,1.335,1.76h0l7.62,1.047a1.562,1.562,0,0,0,1.76-1.335h0l2.7-19.609a1.562,1.562,0,0,0-1.335-1.76Z" transform="translate(-176.453 -231.53)" fill="#fff"/>
    <g id="Group_340" data-name="Group 340">
      <circle id="Ellipse_7" data-name="Ellipse 7" cx="4.246" cy="4.246" r="4.246" transform="translate(113.357 154.389)" fill="#6f9642"/>
    </g>
    <path id="Path_75" data-name="Path 75" d="M301.308,410.059a.438.438,0,0,1-.265-.088l0,0-1-.764a.443.443,0,1,1,.536-.706l0,0,.646.5L302.753,407a.443.443,0,0,1,.621-.082h0l-.009.013.01-.013a.444.444,0,0,1,.082.621l-1.8,2.343A.444.444,0,0,1,301.308,410.059Z" transform="translate(-184.126 -249.805)" fill="#fff"/>
    <path id="Path_76" data-name="Path 76" d="M171.516,654.772H24.461a.386.386,0,1,1,0-.772H171.516a.386.386,0,1,1,0,.772Z" transform="translate(-14.782 -401.574)" fill="#3f3d56"/>
  </g>
</svg>
